<?xml version="1.0" encoding="UTF-8"?> <svg xmlns="http://www.w3.org/2000/svg" width="148" height="148" viewBox="0 0 148 148" fill="none"><path d="M51.1197 28.3694L34.4297 45.7594C38.5497 48.4294 42.5097 51.0994 44.1697 52.5094C44.0497 54.7894 43.5297 58.0394 41.9397 62.0394C39.2497 68.7994 40.8497 72.1494 42.3897 75.3994C42.8297 76.3294 43.2897 77.2894 43.6297 78.3094C44.4597 80.8194 45.6697 82.7894 46.6397 84.3794C47.4497 85.6994 48.1497 86.8493 48.2697 87.7393C48.3397 88.2693 48.3497 88.8694 48.3697 89.4494C48.3997 91.1994 48.4497 93.5893 50.8097 93.5493C50.9197 93.5493 51.0297 93.5394 51.1397 93.5094C51.7397 93.3794 52.2897 92.9394 52.7897 92.1894C54.3997 89.7494 55.3097 84.2594 54.0197 81.0994C53.7297 80.3794 53.5597 79.5794 53.4697 78.7294C55.9097 82.1694 61.0097 89.0194 65.8997 93.5694C74.1397 101.219 79.3897 105.439 82.0897 104.859C82.4297 104.789 82.7297 104.639 82.9897 104.409C83.5997 103.879 83.9297 103.119 83.9397 102.239C83.9397 101.509 83.7297 100.679 83.3097 99.7594C85.0497 100.499 87.4797 101.249 89.4597 100.819C90.4497 100.609 91.3297 100.099 91.9497 99.1594C92.3497 98.5494 92.5597 97.9293 92.5897 97.2993C93.2697 97.4393 94.1497 97.5394 94.9897 97.3594C95.5797 97.2294 96.1497 96.9694 96.5997 96.4794C97.2197 95.8194 97.5097 95.0294 97.4797 94.1594C97.4197 92.5694 96.2697 90.7694 93.9597 88.6394C93.5097 88.2194 93.0297 87.7694 92.5597 87.3094C92.6097 87.3094 92.6697 87.2894 92.7197 87.2794C93.2897 87.1594 93.8997 86.9094 94.4897 86.4294C96.9997 84.3894 95.0597 81.9694 92.9997 79.4094C92.6397 78.9594 92.2797 78.5294 91.9397 78.1194L87.1597 97.9794L84.4397 74.4694L64.7897 76.6494L80.1397 66.0193L76.3097 52.0394C72.8697 47.0194 68.1497 40.5794 68.0697 40.4694C68.0197 40.3894 66.6997 38.5494 62.5197 36.5394C60.0797 35.3794 54.8097 31.2994 51.1297 28.3594M54.5397 77.9694L54.2097 77.6594C54.2097 77.6594 54.2397 77.6294 54.2997 77.5594C54.3597 77.4894 54.4497 77.3894 54.5697 77.2494C54.7997 76.9794 55.1297 76.5794 55.5197 76.0794C56.2997 75.0694 57.3197 73.6394 58.2797 71.9394C60.1997 68.5394 61.8697 64.0693 60.9497 59.7993C60.4797 57.5993 59.3297 55.4493 57.1597 53.4893L57.4597 53.1494C59.6897 55.1694 60.8897 57.4094 61.3797 59.6994C62.3297 64.1494 60.5997 68.7094 58.6597 72.1594C56.7097 75.6094 54.5397 77.9594 54.5297 77.9594" fill="#00A6E7"></path><path d="M38.99 12.01L12 36.27L30.57 49.79L34.43 45.77C31.17 43.66 27.82 41.56 25.41 40.08L24.39 39.45L46.74 24.8L47.17 25.16C47.17 25.16 48.86 26.57 51.11 28.37L53.04 26.36L38.99 12V12.01Z" fill="#EB235A"></path><path d="M46.7504 24.8008L24.4004 39.4508L25.4203 40.0808C27.8203 41.5608 31.1804 43.6608 34.4404 45.7708L51.1304 28.3808C48.8904 26.5808 47.2404 25.2108 47.1904 25.1708L46.7604 24.8108L46.7504 24.8008Z" fill="#002E7D"></path><path d="M57.4609 53.1699L57.1609 53.5099C59.3309 55.4699 60.4709 57.6199 60.9509 59.8199C61.8709 64.0899 60.2009 68.5599 58.2809 71.9599C57.3209 73.6599 56.3009 75.0899 55.5209 76.0999C55.1309 76.5999 54.8009 76.9999 54.5709 77.2699C54.4509 77.4099 54.3609 77.5099 54.3009 77.5799C54.2409 77.6499 54.2109 77.6799 54.2109 77.6799L54.5409 77.9899C54.5409 77.9899 56.7209 75.6399 58.6709 72.1899C60.6109 68.7399 62.3409 64.1799 61.3909 59.7299C60.9009 57.4399 59.7009 55.1899 57.4709 53.1799" fill="#002E7D"></path><path d="M74.7695 46.4899L76.2995 52.0499C77.1395 53.2799 77.8995 54.4199 78.4995 55.3699C78.4995 55.3699 81.9195 63.7699 83.1095 66.2199C83.6095 67.2399 84.3195 68.8699 84.4795 69.1099C84.6595 69.3799 87.9995 72.9699 88.2495 73.6299C88.3895 73.9999 89.3195 75.0899 90.3095 76.2299C90.7895 76.7899 91.3395 77.4299 91.9295 78.1399L93.4995 71.6199L116.839 75.2599L99.4295 61.8999L99.2495 42.4199L88.7295 58.3699L74.7795 46.4899H74.7695Z" fill="#FFCF03"></path><path d="M76.2993 52.049L80.1293 66.0291L64.7793 76.6591L84.4293 74.4791L87.1494 97.989L91.9293 78.1291C91.3393 77.4191 90.7893 76.7791 90.3093 76.2191C89.3293 75.0791 88.3993 73.989 88.2493 73.619C87.9993 72.959 84.6593 69.3691 84.4793 69.0991C84.3193 68.8591 83.6093 67.239 83.1093 66.209C81.9193 63.759 78.4993 55.3591 78.4993 55.3591C77.8993 54.4091 77.1393 53.2691 76.2993 52.0391" fill="#002E7D"></path><path d="M104.509 101.391L104.819 114.091L92.6895 112.901L103.029 121.541L98.6794 133.171L108.589 124.521L118.999 136.331L112.449 119.521L126.579 112.651L111.999 111.961L104.509 101.391Z" fill="#FFCF03"></path><path d="M120.281 69.7189L122.381 77.3589L116.381 81.5189L124.061 80.6689L125.121 89.8589L127.601 79.5489L136.731 80.9689L129.921 75.7489L129.851 68.1289L125.731 74.3689L120.281 69.7189Z" fill="#FFCF03"></path></svg> 