<?xml version="1.0" encoding="UTF-8"?> <svg xmlns="http://www.w3.org/2000/svg" width="94" height="228" viewBox="0 0 94 228" fill="none"><path d="M91.1297 28.6245H1.65065C1.90579 34.3056 2.10625 40.3509 2.23381 46.6511C2.32493 51.6584 2.37961 56.8479 2.37961 62.1466C2.37961 82.9044 1.59598 101.805 0.320312 115.989C0.320312 120.906 14.5167 130.028 18.5624 132.541L23.337 129.3H70.9377L75.0016 132.049C79.831 129.009 92.4601 120.633 92.4783 115.989C91.2026 101.823 90.419 82.9044 90.419 62.1466C90.419 56.8479 90.4737 51.6766 90.5648 46.6511C90.6924 40.3509 90.8746 34.3056 91.148 28.6245H91.1297Z" fill="#33B8EC"></path><path d="M92.4783 8.28493C92.4783 8.28493 91.0568 0 79.3025 0H13.4962C1.74177 0 0.320312 8.26672 0.320312 8.28493C0.867028 14.2938 1.32262 21.1402 1.65065 28.624H91.1297C91.476 21.1402 91.9316 14.2938 92.4601 8.28493H92.4783Z" fill="#89F4DF"></path><path d="M75.0022 132.031C73.8541 132.741 73.1616 133.16 73.1616 133.16L47.2109 134.962V135.072L46.3908 135.017L45.5707 135.072V134.962L19.6382 133.16C19.6382 133.16 19.2373 132.923 18.563 132.504L17.0686 133.506V137.257L2.28908 139.751C2.28908 139.751 2.17974 139.624 2.01572 139.624C1.39611 139.624 -0.0617951 141.499 0.320906 159.271C0.794726 181.795 1.54191 227.08 1.54191 227.08H92.7158C92.7158 227.08 93.463 181.795 93.9368 159.271C94.3195 141.499 92.8616 139.624 92.2238 139.624C92.0598 139.624 91.9504 139.751 91.9504 139.751L77.1709 137.257V133.506L74.9658 132.013L75.0022 132.031Z" fill="#869FE9"></path><path d="M58.9469 207.561L58.7282 217.594H53.9354L53.2793 207.561H58.9469Z" fill="white"></path><path d="M30.1536 218.65L28.8779 207.561H34.5273L34.9647 218.65H30.1536Z" fill="#445EA7"></path><path d="M34.5273 207.561H28.8779L30.1536 218.65H34.9647L34.5273 207.561Z" fill="#002E7D"></path><path d="M58.9469 207.561H53.2793L53.9354 217.594H58.7282L58.9469 207.561Z" fill="#002E7D"></path><path d="M54.9022 197.873C54.9022 197.873 51.95 198.728 52.2051 199.967C52.442 201.187 54.1733 200.203 54.3008 202.425C54.4284 204.646 52.2051 205.01 52.2051 205.01V208.379H57.0162V197.873H54.9204H54.9022Z" fill="#00A6E7"></path><path d="M58.072 197.873C58.072 197.873 61.0242 198.728 60.7691 199.967C60.5322 201.187 58.8009 200.203 58.6734 202.425C58.5458 204.628 60.7691 205.01 60.7691 205.01V208.379H55.958V197.873H58.0537H58.072Z" fill="#00A6E7"></path><path d="M30.4813 197.873C30.4813 197.873 27.5291 198.728 27.7842 199.967C28.0211 201.187 29.7524 200.203 29.8799 202.425C30.0075 204.628 27.7842 205.01 27.7842 205.01V208.379H32.5953V197.873H30.4995H30.4813Z" fill="#EB235A"></path><path d="M33.653 197.873C33.653 197.873 36.6053 198.728 36.3502 199.967C36.1132 201.187 34.382 200.203 34.2544 202.425C34.1268 204.646 36.3502 205.01 36.3502 205.01V208.379H31.5391V197.873H33.6348H33.653Z" fill="#EB235A"></path><path d="M70.9379 129.282H23.3372L18.5625 132.523C19.2368 132.942 19.6377 133.178 19.6377 133.178L45.5702 134.981V135.09L46.3903 135.036L47.2104 135.09V134.981L73.1612 133.178C73.1612 133.178 73.8719 132.76 75.0018 132.049L70.9379 129.3V129.282Z" fill="#002E7D"></path><path d="M56.9786 88.7126C71.5759 78.5158 68.3321 50.9661 66.9288 42.3899C66.8013 41.6251 65.799 41.4248 65.3798 42.0803C59.9856 50.7476 42.5636 52.7688 41.7617 52.8598C41.7435 52.8598 41.7253 52.8598 41.707 52.8598C41.5977 52.878 41.1603 52.9691 40.9234 53.0237C30.1531 55.4637 23.4103 66.1339 25.8341 76.8952C28.2578 87.6383 38.9552 94.3937 49.7255 91.9537C51.1288 91.6442 52.4591 91.1526 53.7166 90.5881C54.8647 90.0783 55.9034 89.441 56.8875 88.749C56.9057 88.749 56.9422 88.7308 56.9604 88.6944" fill="#002E7D"></path></svg> 