<?xml version="1.0" encoding="UTF-8"?> <svg xmlns="http://www.w3.org/2000/svg" width="148" height="148" viewBox="0 0 148 148" fill="none"><path d="M86.7106 12L55.1406 33.3L85.4306 57.66L85.8306 43.43C83.3406 42.73 80.7206 42.36 78.0006 42.36V27.3H78.0206C80.8306 27.3 83.5906 27.57 86.2706 28.08L86.7206 12H86.7106Z" fill="#EB235A"></path><path d="M86.2601 28.0803L85.8301 43.4303C87.0101 43.7603 88.1601 44.1603 89.2701 44.6303C94.4601 46.8203 98.9001 50.5103 102.02 55.1303C103.58 57.4403 104.82 59.9903 105.66 62.7003C106.5 65.4203 106.96 68.3003 106.96 71.3203C106.96 77.1203 105.28 82.4603 102.37 86.9803L115.03 95.1403C119.45 88.2803 122.03 80.0703 122.02 71.3203C122.02 65.2603 120.79 59.4503 118.56 54.1803C115.21 46.2703 109.64 39.5603 102.62 34.8203C97.7801 31.5503 92.2301 29.2103 86.2601 28.0703" fill="#00A6E7"></path><path d="M78.0102 27.3008H77.9902V42.3608C80.7202 42.3608 83.3402 42.7308 85.8202 43.4308L86.2502 28.0807C83.5702 27.5707 80.8202 27.3008 78.0002 27.3008" fill="#002E7D"></path><path d="M62.5908 91.0703L62.1908 105.3C64.6708 106 67.3008 106.37 70.0208 106.37V121.43C70.0208 121.43 70.0108 121.43 70.0008 121.43C67.1908 121.43 64.4308 121.16 61.7508 120.65L61.3008 136.73L92.8708 115.43L62.5808 91.0703H62.5908Z" fill="#FFCF03"></path><path d="M32.99 53.5801C28.57 60.4401 26 68.6501 26 77.3901C26 83.4501 27.23 89.2601 29.46 94.5301C32.81 102.44 38.38 109.15 45.4 113.89C50.24 117.16 55.79 119.5 61.76 120.64L62.19 105.29C61.01 104.96 59.86 104.56 58.75 104.09C53.56 101.9 49.12 98.2101 46 93.5901C44.44 91.2801 43.2 88.7301 42.36 86.0201C41.52 83.3001 41.06 80.4201 41.06 77.4001C41.06 71.6001 42.74 66.2601 45.65 61.7401L32.99 53.5901V53.5801Z" fill="#00A6E7"></path><path d="M62.1898 105.301L61.7598 120.651C64.4398 121.161 67.1898 121.431 70.0098 121.431C70.0098 121.431 70.0198 121.431 70.0298 121.431V106.371C67.2998 106.371 64.6798 106.001 62.1998 105.301" fill="#002E7D"></path></svg> 