<?xml version="1.0" encoding="UTF-8"?> <svg xmlns="http://www.w3.org/2000/svg" width="148" height="148" viewBox="0 0 148 148" fill="none"><path d="M120.47 114.93C120.47 114.93 120.69 100.5 110.6 85.1596C106.25 78.5596 97.4897 74.0696 88.9197 71.0996C83.9397 78.5096 75.0997 89.5896 65.5997 91.5896C64.3397 91.8496 63.1197 92.0496 61.9297 92.2096C66.3597 100.7 71.8097 109.83 77.9497 117.47C94.5797 138.17 118.87 118.6 118.87 118.6L132.19 128.21L136.75 125L120.48 114.93H120.47Z" fill="#00A6E7"></path><path d="M66.58 65.9C66.58 65.9 77.58 67.18 88.91 71.11C91.53 67.2 93.08 64.31 93.08 64.31L98.68 51.93C98.68 51.93 84.44 51.58 68.81 53.8C67.43 42.52 63.19 31.96 63.19 31.96L56.95 19C56.95 19 45.39 32.0999 36.15 47.7599C23.36 42.0599 12 38.8 12 38.8L13.65 52.29C13.65 52.29 18.8 79.3 31.73 86.54C35.1 88.42 45.6 91.92 45.6 91.92L45.4 111.16L49.69 114.41L48.37 92.3C53.16 93.04 56.53 92.64 56.53 92.64C58.22 92.6 60.02 92.45 61.89 92.2C54.31 77.6899 49.69 65.06 49.69 65.06L66.55 65.88L66.58 65.9Z" fill="#FFCF03"></path><path d="M88.9205 71.1101C77.5805 67.1801 66.5905 65.9001 66.5905 65.9001L49.7305 65.0801C49.7305 65.0801 54.3505 77.7001 61.9305 92.2201C63.1305 92.0601 64.3505 91.8701 65.6005 91.6001C75.1005 89.6101 83.9505 78.5201 88.9205 71.1101Z" fill="#002E7D"></path></svg> 