<svg xmlns="http://www.w3.org/2000/svg" width="214" height="37" viewBox="0 0 214 37" fill="none"><path d="M45.7264 6.57315C44.3893 5.05858 42.2339 3.6803 39.5473 3.6803C34.0381 3.6803 29.7219 8.27879 29.7219 14.1488C29.7219 16.9897 30.7145 19.6366 32.5156 21.6008C34.3443 23.5944 36.8414 24.6917 39.5459 24.6917C41.7878 24.6917 44.0337 23.6591 45.6152 21.945V32.8434H49.444V4.15659H45.725V6.57315H45.7264ZM39.5487 21.0346C36.2429 21.0346 33.5535 17.945 33.5535 14.1474C33.5535 10.3919 36.2429 7.33605 39.5487 7.33605C42.838 7.33605 45.618 10.4551 45.618 14.1474C45.6166 17.8818 42.838 21.0346 39.5487 21.0346Z" fill="#00A6E7"></path><path d="M65.332 16.4066C65.332 19.069 63.3702 21.0768 60.7687 21.0768C58.0724 21.0768 56.4621 19.3023 56.4621 16.3307V4.15662H52.6689V16.1804C52.6689 21.2833 55.5835 24.6033 60.1083 24.6904C62.3584 24.6468 64.4877 23.7547 65.4432 21.9591V22.6883V24.2436H69.1622V4.15662H65.3333V16.4066H65.332Z" fill="#00A6E7"></path><path d="M161.613 4.15662H157.784V24.2281H161.613V4.15662Z" fill="#00A6E7"></path><path d="M183.209 10.3778C181.848 6.24018 178.343 3.66907 174.063 3.66907C168.646 3.66907 164.238 8.39822 164.238 14.212C164.238 19.9837 168.644 24.6805 174.063 24.6805C178.382 24.6805 181.887 22.1094 183.209 17.9689L183.243 17.8622H179.126C178.076 19.8727 176.242 21.0234 174.063 21.0234C170.757 21.0234 168.068 17.9675 168.068 14.2106C168.068 10.413 170.757 7.32341 174.063 7.32341C176.209 7.32341 178.046 8.47971 179.13 10.4987H183.249L183.209 10.3778Z" fill="#00A6E7"></path><path d="M194.785 21.0613C192.11 21.0613 189.208 19.1196 188.653 15.4006H204.497L204.499 15.0396C204.517 11.6901 203.402 8.68765 201.359 6.5858C199.53 4.70454 197.131 3.66766 194.601 3.66766C189.163 3.66766 184.74 8.39682 184.74 14.2106C184.74 20.0806 189.152 24.6791 194.785 24.6791C199.304 24.6791 202.677 22.233 204.042 17.9675L204.076 17.8607H200.001C198.983 19.9542 197.184 21.0613 194.785 21.0613ZM194.601 7.28689C197.129 7.28689 199.386 9.12881 200.225 11.8193H188.905C189.834 8.8422 192.42 7.28689 194.601 7.28689Z" fill="#00A6E7"></path><path d="M88.9596 20.7241V10.0547C88.9596 8.12424 88.2512 6.51976 86.91 5.41404C85.5138 4.26336 83.5163 3.6803 80.9697 3.6803C78.5261 3.6803 76.4353 4.30832 74.9251 5.49834C73.4068 6.69397 72.5433 8.39259 72.4293 10.4087L72.428 10.4326H76.3721C76.7139 7.74068 79.3731 7.33745 80.9327 7.33745C83.6468 7.33745 85.2035 8.19168 85.2035 9.67955C85.2035 10.6616 84.5158 11.6985 79.4088 11.9472C76.8004 12.0877 74.8785 12.6426 73.5331 13.6458C72.093 14.7192 71.364 16.304 71.364 18.3581C71.364 20.415 72.1877 22.0911 73.7459 23.2067C75.0789 24.1607 76.8814 24.6721 78.9654 24.6931C81.8552 24.6735 84.0366 23.7897 85.2502 21.9492C85.323 22.7852 85.5111 23.5678 85.8378 24.2309H89.4799C89.1971 23.4905 88.9596 21.6275 88.9596 20.7241ZM85.2035 16.4361C85.1706 17.9408 84.5542 19.1084 83.3708 19.9078C82.3302 20.6117 80.8517 20.9981 79.207 20.9981C77.9989 20.9981 76.9858 20.769 76.2774 20.3363C75.5333 19.8811 75.1558 19.2151 75.1558 18.3567C75.1558 17.1091 75.6898 15.6423 79.8536 15.3753C81.7289 15.2489 83.7991 15.0381 85.2022 14.1811V16.4361H85.2035Z" fill="#00A6E7"></path><path d="M27.5199 20.7241V10.0547C27.5199 8.12424 26.8115 6.51976 25.4703 5.41404C24.0755 4.26336 22.0766 3.6803 19.53 3.6803C17.0864 3.6803 14.9956 4.30832 13.4854 5.49834C11.9671 6.69397 11.1036 8.39259 10.9896 10.4087L10.9883 10.4326H14.9324C15.2742 7.74068 17.9334 7.33745 19.493 7.33745C22.2071 7.33745 23.7638 8.19168 23.7638 9.67955C23.7638 10.6616 23.0761 11.6985 17.9691 11.9472C15.3607 12.0877 13.4388 12.6426 12.0934 13.6458C10.6533 14.7192 9.92432 16.304 9.92432 18.3581C9.92432 20.415 10.748 22.0911 12.3062 23.2067C13.6392 24.1607 15.4417 24.6721 17.5257 24.6931C20.4155 24.6735 22.5969 23.7897 23.8105 21.9492C23.8833 22.7852 24.0714 23.5678 24.3981 24.2309H28.0402C27.7574 23.4905 27.5199 21.6275 27.5199 20.7241ZM23.7638 16.4361C23.7309 17.9408 23.1145 19.1084 21.9311 19.9078C20.8905 20.6117 19.412 20.9981 17.7673 20.9981C16.5592 20.9981 15.5461 20.769 14.8377 20.3363C14.0936 19.8811 13.7161 19.2151 13.7161 18.3567C13.7161 17.1091 14.2501 15.6423 18.4139 15.3753C20.2892 15.2489 22.3594 15.0381 23.7625 14.1811V16.4361H23.7638Z" fill="#00A6E7"></path><path d="M115.959 21.0725C113.285 21.0725 110.383 19.1308 109.828 15.4119H125.672L125.674 15.0508C125.691 11.7013 124.577 8.69888 122.534 6.59703C120.705 4.71577 118.306 3.67889 115.775 3.67889C110.338 3.67889 105.914 8.40805 105.914 14.2218C105.914 20.0918 110.327 24.6903 115.959 24.6903C120.479 24.6903 123.852 22.2443 125.216 17.9788L125.253 17.8607H121.18C120.164 19.9612 118.363 21.0725 115.959 21.0725ZM115.775 7.29812C118.304 7.29812 120.561 9.14004 121.4 11.8306H110.079C111.009 8.85343 113.595 7.29812 115.775 7.29812Z" fill="#00A6E7"></path><path d="M104.43 3.6803H104.191C100.148 3.6803 96.8699 7.29952 96.8699 11.8334V16.5415C96.8699 19.0002 95.6576 21.2425 92.9202 21.2425H92.8708C91.9139 21.2425 91.1932 21.0809 90.8994 21.0009C90.9104 21.9225 91.0189 23.5846 91.1506 24.3152C91.5035 24.4487 92.2805 24.6889 93.3293 24.6889C97.9324 24.6889 100.651 20.8295 100.651 16.5372V11.8278C100.651 8.9321 102.419 7.1253 104.6 7.1253H104.65C105.302 7.1253 105.808 7.23068 106.147 7.33324L106.778 4.03857C106.227 3.88402 105.331 3.6803 104.43 3.6803Z" fill="#00A6E7"></path><path d="M147.449 18.8161L144.691 10.722C144.651 10.6054 144.5 10.5829 144.43 10.6827C143.876 11.4667 143.107 12.0652 142.198 12.4052C141.981 12.4867 141.771 12.5513 141.568 12.6019C141.48 12.6244 141.431 12.7199 141.461 12.807L145.514 24.2281H149.351L156.473 4.15656H152.411L147.449 18.8161Z" fill="#00A6E7"></path><path d="M143.089 6.77689C142.493 5.10637 140.733 4.39404 139.056 4.85769C137.116 5.39298 135.473 6.95813 134.494 8.89419C134.053 9.76527 133.823 10.5858 133.718 11.0382C133.688 11.1703 133.828 11.2756 133.941 11.2054C134.162 11.0705 134.49 10.885 134.874 10.7221C135.585 10.42 136.386 10.2584 137.15 10.4312C138.213 10.6701 139.339 11.6058 141.213 10.9061C142.845 10.295 143.685 8.446 143.089 6.77689Z" fill="#002E7D"></path><path d="M136.424 3.97111C136.575 3.96128 136.644 4.16079 136.52 4.25071C135.613 4.91104 134.466 5.90296 133.504 7.29529C132.381 8.92085 132.048 10.7853 131.978 12.2211C131.907 13.657 131.967 24.2295 131.967 24.2295H127.843V12.5977C127.843 9.99285 128.751 7.81373 130.47 6.29354C131.648 5.25245 133.07 4.54294 134.637 4.20856C135.304 4.06525 135.977 4.00062 136.424 3.97111Z" fill="#00A6E7"></path></svg>